#N canvas 1730 29 846 786 10;
#X declare -path iem_tab;
#X obj 56 295 gemhead;
#X obj 56 383 pix_film;
#X obj 33 476 pix_texture;
#X obj 33 499 rectangle 5.33 4;
#X obj 38 212 bng 15 250 50 0 empty empty empty 17 7 0 10 -262144 -1
-1;
#X obj 38 233 openpanel;
#X msg 38 256 open \$1;
#X msg 77 407 \$1;
#X floatatom 77 433 9 0 0 0 - - -;
#X obj 37 153 table vitesse 100000;
#X obj 229 360 until;
#X msg 229 335 10;
#X obj 229 300 gemhead 2;
#X obj 292 498 /;
#X obj 257 467 +;
#X obj 262 410 f;
#X obj 265 378 bng 15 250 50 0 empty empty empty 17 7 0 10 -262144
-1 -1;
#X obj 290 466 fmod;
#X obj 286 605 t f f;
#X obj 372 327 vsl 15 128 0 127 0 0 empty empty empty 0 -9 0 10 -262144
-1 -1 12700 1;
#X obj 360 465 / 127;
#X obj 83 618 s vitesse;
#X obj 287 661 *;
#X obj 277 715 t f f;
#X obj 316 740 tabwrite vitesse;
#X msg 105 597 const 1;
#X msg 91 529 resize \$1;
#X obj 105 572 loadbang;
#X obj 298 527 * 1500;
#X obj 287 637 tabread vitesse;
#X obj 314 443 - 1;
#X obj 301 550 i;
#X obj 325 497 s position;
#X obj 301 575 change;
#X obj 37 176 table temp 100000;
#X obj 374 194 s temp;
#X obj 344 215 bng 15 250 50 0 empty empty empty 17 7 0 10 -262144
-1 -1;
#X obj 378 144 f;
#X obj 346 118 t b b;
#X obj 346 95 bng 15 250 50 0 empty empty empty 17 7 0 10 -262144 -1
-1;
#X floatatom 438 326 5 0 0 0 - - -;
#X obj 44 712 timer;
#X floatatom 44 736 5 0 0 0 - - -;
#X msg 372 170 resize \$1 \, const 0.004;
#X obj 71 674 bng 15 250 50 0 empty empty empty 17 7 0 10 -262144 -1
-1;
#X obj 44 675 bng 15 250 50 0 empty empty empty 17 7 0 10 -262144 -1
-1;
#X obj 365 577 sel 0;
#X obj 354 66 metro 1000;
#X obj 352 46 tgl 15 0 empty empty empty 17 7 0 10 -262144 -1 -1 1
1;
#X obj 351 20 loadbang;
#X obj 101 358 f;
#X obj 56 321 t a b;
#X floatatom 439 651 5 0 0 0 - - -;
#X msg 383 536 -1;
#X text 426 536 <- reset;
#X floatatom 448 487 9 0 0 0 - - -;
#X obj 317 299 loadbang;
#X msg 315 325 127;
#X text 469 291 durée du film lu en sec;
#X obj 37 118 gemwin;
#X msg 45 91 destroy;
#X obj 36 20 declare -path iem_tab;
#X obj 348 235 iem_tab/tab_div temp vitesse temp;
#X obj 345 262 iem_tab/tab_sum temp;
#X obj 426 358 iem_tab/tab_mul_scalar vitesse;
#X obj 353 516 pow 2;
#X obj 290 687 max 0.2;
#X obj 421 292 / 20;
#X obj 581 580 s vitesse;
#X obj 577 515 savepanel;
#X msg 577 537 write \$1;
#X obj 581 493 bng 15 250 50 0 empty empty empty 17 7 0 10 -262144
-1 -1;
#X obj 654 514 openpanel;
#X msg 651 538 read \$1;
#X obj 655 495 bng 15 250 50 0 empty empty empty 17 7 0 10 -262144
-1 -1;
#X msg 37 62 frame 30 \, dimen 800 600 \, create \, 1;
#X connect 0 0 51 0;
#X connect 1 0 2 0;
#X connect 1 1 7 0;
#X connect 2 0 3 0;
#X connect 4 0 5 0;
#X connect 5 0 6 0;
#X connect 6 0 1 0;
#X connect 7 0 8 0;
#X connect 7 0 13 1;
#X connect 7 0 26 0;
#X connect 7 0 28 1;
#X connect 7 0 30 0;
#X connect 7 0 37 1;
#X connect 10 0 15 0;
#X connect 11 0 10 0;
#X connect 12 0 11 0;
#X connect 13 0 28 0;
#X connect 13 0 32 0;
#X connect 14 0 17 0;
#X connect 15 0 14 0;
#X connect 16 0 15 0;
#X connect 17 0 14 1;
#X connect 17 0 13 0;
#X connect 17 0 50 1;
#X connect 17 0 55 0;
#X connect 18 0 29 0;
#X connect 18 1 24 1;
#X connect 19 0 20 0;
#X connect 20 0 65 0;
#X connect 22 0 52 0;
#X connect 22 0 66 0;
#X connect 23 0 15 1;
#X connect 23 1 24 0;
#X connect 25 0 21 0;
#X connect 26 0 21 0;
#X connect 27 0 25 0;
#X connect 28 0 31 0;
#X connect 29 0 22 0;
#X connect 30 0 17 1;
#X connect 31 0 33 0;
#X connect 33 0 18 0;
#X connect 33 0 46 0;
#X connect 33 0 39 0;
#X connect 36 0 62 0;
#X connect 37 0 43 0;
#X connect 38 0 36 0;
#X connect 38 1 37 0;
#X connect 39 0 38 0;
#X connect 41 0 42 0;
#X connect 43 0 35 0;
#X connect 44 0 41 1;
#X connect 45 0 41 0;
#X connect 47 0 39 0;
#X connect 48 0 47 0;
#X connect 49 0 48 0;
#X connect 50 0 1 1;
#X connect 51 0 1 0;
#X connect 51 1 50 0;
#X connect 53 0 33 0;
#X connect 56 0 57 0;
#X connect 57 0 19 0;
#X connect 60 0 59 0;
#X connect 62 0 63 0;
#X connect 63 1 67 0;
#X connect 65 0 22 1;
#X connect 66 0 23 0;
#X connect 67 0 40 0;
#X connect 67 0 64 0;
#X connect 69 0 70 0;
#X connect 70 0 68 0;
#X connect 71 0 69 0;
#X connect 72 0 73 0;
#X connect 73 0 68 0;
#X connect 74 0 72 0;
#X connect 75 0 59 0;
