#N canvas 665 139 740 755 10;
#X declare -path iem_tab;
#X obj 50 295 gemhead;
#X obj 50 383 pix_film;
#X obj 51 476 pix_texture;
#X obj 47 505 rectangle 5.33 4;
#X obj 149 263 bng 15 250 50 0 empty empty empty 17 7 0 10 -262144
-1 -1;
#X obj 149 282 openpanel;
#X msg 148 309 open \$1;
#X msg 71 407 \$1;
#X floatatom 70 433 9 0 0 0 - - -;
#X obj 36 199 table vitesse 100000;
#X obj 152 580 s vitesse;
#X msg 173 559 const 1;
#X msg 160 491 resize \$1;
#X obj 174 534 loadbang;
#X obj 95 358 f;
#X obj 53 321 t a b;
#X obj 31 155 gemwin;
#X msg 52 130 destroy;
#X obj 36 20 declare -path iem_tab;
#X msg 45 101 frame 30 \, dimen 800 600 \, create \, 1;
#X obj 33 696 s vitesse;
#X obj 29 631 savepanel;
#X obj 33 609 bng 15 250 50 0 empty empty empty 17 7 0 10 -262144 -1
-1;
#X obj 124 630 openpanel;
#X obj 125 611 bng 15 250 50 0 empty empty empty 17 7 0 10 -262144
-1 -1;
#X msg 29 653 write \$1.txt;
#X obj 263 236 f;
#X obj 447 74 vsl 15 300 0 1 0 0 empty empty empty 0 -9 0 10 -262144
-1 -1 1400 1;
#X obj 262 379 sel 1;
#X obj 284 413 t b;
#X obj 263 129 gemhead 2;
#X obj 263 157 t b;
#X obj 304 269 mod;
#X msg 121 390 1500;
#X obj 263 210 until;
#X obj 305 239 + 2;
#X obj 38 225 table montage 100000;
#X obj 232 583 s montage;
#X obj 323 413 iem_tab/tab_le_scalar vitesse montage;
#X msg 121 654 read \$1;
#X obj 262 303 tabread montage;
#X obj 261 349 > 0.5;
#X obj 323 442 iem_tab/tab_sum montage;
#X floatatom 461 467 5 0 0 0 - - -;
#X floatatom 462 514 5 0 0 0 - - -;
#X obj 447 549 / 60;
#X obj 445 576 i;
#X obj 487 555 % 60;
#X floatatom 444 605 5 0 0 0 - - -;
#X floatatom 493 606 5 0 0 0 - - -;
#X obj 462 491 / 60;
#X msg 263 185 10000;
#X obj 439 386 * 45;
#X connect 0 0 15 0;
#X connect 1 0 2 0;
#X connect 1 1 7 0;
#X connect 2 0 3 0;
#X connect 4 0 5 0;
#X connect 5 0 6 0;
#X connect 6 0 1 0;
#X connect 7 0 8 0;
#X connect 7 0 12 0;
#X connect 7 0 32 1;
#X connect 11 0 10 0;
#X connect 12 0 10 0;
#X connect 12 0 37 0;
#X connect 13 0 11 0;
#X connect 14 0 1 1;
#X connect 15 0 1 0;
#X connect 15 1 14 0;
#X connect 17 0 16 0;
#X connect 19 0 16 0;
#X connect 21 0 25 0;
#X connect 22 0 21 0;
#X connect 23 0 39 0;
#X connect 24 0 23 0;
#X connect 25 0 20 0;
#X connect 26 0 35 0;
#X connect 26 0 14 1;
#X connect 26 0 40 0;
#X connect 27 0 52 0;
#X connect 28 0 29 0;
#X connect 29 0 34 1;
#X connect 30 0 31 0;
#X connect 31 0 51 0;
#X connect 32 0 26 1;
#X connect 33 0 7 0;
#X connect 34 0 26 0;
#X connect 35 0 32 0;
#X connect 38 0 42 0;
#X connect 39 0 20 0;
#X connect 40 0 41 0;
#X connect 41 0 28 0;
#X connect 42 1 43 0;
#X connect 43 0 50 0;
#X connect 45 0 46 0;
#X connect 46 0 48 0;
#X connect 47 0 49 0;
#X connect 50 0 44 0;
#X connect 50 0 47 0;
#X connect 50 0 45 0;
#X connect 51 0 34 0;
#X connect 52 0 38 0;
