#N canvas 1293 22 614 750 10;
#X declare -path iem_tab;
#X obj 50 295 gemhead;
#X obj 50 383 pix_film;
#X obj 51 476 pix_texture;
#X obj 118 263 bng 15 250 50 0 empty empty empty 17 7 0 10 -262144
-1 -1;
#X obj 118 287 openpanel;
#X msg 118 313 open \$1;
#X msg 71 407 \$1;
#X floatatom 71 433 9 0 0 0 - - -;
#X obj 186 20 table vitesse 100000;
#X obj 152 580 s vitesse;
#X msg 174 560 const 1;
#X msg 160 491 resize \$1;
#X obj 174 534 loadbang;
#X obj 95 358 f;
#X obj 50 321 t a b;
#X obj 47 174 gemwin;
#X msg 63 147 destroy;
#X obj 36 20 declare -path iem_tab;
#X obj 314 256 s vitesse;
#X obj 310 191 savepanel;
#X obj 314 169 bng 15 250 50 0 empty empty empty 17 7 0 10 -262144
-1 -1;
#X obj 405 190 openpanel;
#X obj 406 171 bng 15 250 50 0 empty empty empty 17 7 0 10 -262144
-1 -1;
#X msg 310 213 write \$1.txt;
#X obj 217 310 f;
#X obj 547 10 vsl 15 600 0.01 5 1 0 empty empty empty 0 -9 0 10 -262144
-1 -1 14300 1;
#X obj 217 448 sel 1;
#X obj 240 486 t b;
#X obj 217 199 gemhead 2;
#X obj 217 225 t b;
#X obj 258 342 mod;
#X msg 121 390 1500;
#X obj 217 284 until;
#X obj 186 46 table montage 100000;
#X obj 232 580 s montage;
#X obj 278 430 iem_tab/tab_le_scalar vitesse montage;
#X msg 402 214 read \$1;
#X obj 217 376 tabread montage;
#X obj 278 459 iem_tab/tab_sum montage;
#X floatatom 365 499 5 0 0 0 - - -;
#X floatatom 397 549 5 0 0 0 - - -;
#X obj 349 608 i;
#X obj 391 587 % 60;
#X floatatom 348 637 5 0 0 0 - - -;
#X floatatom 397 638 5 0 0 0 - - -;
#X obj 366 523 / 60;
#X msg 217 258 10000;
#X obj 51 502 rectangle 7.1 4;
#X floatatom 394 404 5 0 0 0 - - -;
#X text 435 640 <- durée du film (ss:mm);
#X msg 47 121 frame 30 \, dimen 1280 720 \, create \, 1;
#X obj 351 581 / 60;
#X obj 217 422 > 0.5;
#X obj 259 310 + 1;
#X text 291 307 <- + 2 si 60fps;
#X obj 345 383 * 4;
#X connect 0 0 14 0;
#X connect 1 0 2 0;
#X connect 1 1 6 0;
#X connect 2 0 47 0;
#X connect 3 0 4 0;
#X connect 4 0 5 0;
#X connect 5 0 1 0;
#X connect 6 0 7 0;
#X connect 6 0 11 0;
#X connect 6 0 30 1;
#X connect 10 0 9 0;
#X connect 11 0 9 0;
#X connect 11 0 34 0;
#X connect 12 0 10 0;
#X connect 13 0 1 1;
#X connect 14 0 1 0;
#X connect 14 1 13 0;
#X connect 16 0 15 0;
#X connect 19 0 23 0;
#X connect 20 0 19 0;
#X connect 21 0 36 0;
#X connect 22 0 21 0;
#X connect 23 0 18 0;
#X connect 24 0 13 1;
#X connect 24 0 37 0;
#X connect 24 0 53 0;
#X connect 25 0 55 0;
#X connect 26 0 27 0;
#X connect 27 0 32 1;
#X connect 28 0 29 0;
#X connect 29 0 46 0;
#X connect 30 0 24 1;
#X connect 31 0 6 0;
#X connect 32 0 24 0;
#X connect 35 0 38 0;
#X connect 36 0 18 0;
#X connect 37 0 52 0;
#X connect 38 1 39 0;
#X connect 39 0 45 0;
#X connect 41 0 43 0;
#X connect 42 0 44 0;
#X connect 45 0 40 0;
#X connect 45 0 42 0;
#X connect 45 0 51 0;
#X connect 46 0 32 0;
#X connect 50 0 15 0;
#X connect 51 0 41 0;
#X connect 52 0 26 0;
#X connect 53 0 30 0;
#X connect 55 0 35 0;
#X connect 55 0 48 0;
