#N canvas 172 154 674 784 10;
#X obj 29 27 _gemwin;
#X obj 50 295 gemhead;
#X obj 50 383 pix_film;
#X obj 51 476 pix_texture;
#X obj 47 505 rectangle 5.33 4;
#X obj 149 263 bng 15 250 50 0 empty empty empty 17 7 0 10 -262144
-1 -1;
#X obj 149 282 openpanel;
#X msg 148 309 open \$1;
#X msg 71 407 \$1;
#X floatatom 70 433 5 0 0 0 - - -;
#X obj 30 219 table vitesse 100000;
#X obj 228 345 until;
#X msg 228 320 10;
#X obj 228 285 gemhead 2;
#X obj 292 498 /;
#X obj 257 467 +;
#X obj 261 395 f;
#X obj 264 363 bng 15 250 50 0 empty empty empty 17 7 0 10 -262144
-1 -1;
#X obj 290 466 fmod;
#X obj 286 605 t f f;
#X obj 355 325 vsl 15 128 0 127 0 0 empty empty empty 0 -9 0 10 -262144
-1 -1 12700 1;
#X obj 360 465 / 127;
#X obj 152 580 s vitesse;
#X obj 287 661 *;
#X obj 277 715 t f f;
#X obj 316 740 tabwrite vitesse;
#X msg 173 559 const 1;
#X msg 160 491 resize \$1;
#X obj 174 534 loadbang;
#X obj 298 527 * 1500;
#X obj 287 637 tabread vitesse;
#X obj 314 443 - 1;
#X obj 301 550 i;
#X obj 325 497 s position;
#X obj 289 688 max 0.01;
#X obj 301 575 change;
#X connect 1 0 2 0;
#X connect 2 0 3 0;
#X connect 2 1 8 0;
#X connect 3 0 4 0;
#X connect 5 0 6 0;
#X connect 6 0 7 0;
#X connect 7 0 2 0;
#X connect 8 0 9 0;
#X connect 8 0 14 1;
#X connect 8 0 27 0;
#X connect 8 0 29 1;
#X connect 8 0 31 0;
#X connect 11 0 16 0;
#X connect 12 0 11 0;
#X connect 13 0 12 0;
#X connect 14 0 29 0;
#X connect 14 0 33 0;
#X connect 15 0 18 0;
#X connect 16 0 15 0;
#X connect 17 0 16 0;
#X connect 18 0 15 1;
#X connect 18 0 14 0;
#X connect 18 0 2 1;
#X connect 19 0 30 0;
#X connect 19 1 25 1;
#X connect 20 0 21 0;
#X connect 21 0 23 1;
#X connect 23 0 34 0;
#X connect 24 0 16 1;
#X connect 24 1 25 0;
#X connect 26 0 22 0;
#X connect 27 0 22 0;
#X connect 28 0 26 0;
#X connect 29 0 32 0;
#X connect 30 0 23 0;
#X connect 31 0 18 1;
#X connect 32 0 35 0;
#X connect 34 0 24 0;
#X connect 35 0 19 0;
