#N canvas 0 22 1220 702 10;
#X obj 533 112 unpackOSC;
#X obj 533 168 routeOSC /test /west;
#X obj 533 139 pipelist;
#X obj 533 82 udpreceive 9997;
#X obj 534 272 packOSC;
#X msg 529 247 send /test/one/two/three zz 88 T;
#X msg 549 297 connect 127.0.0.1 9997;
#X obj 530 327 udpsend;
#X obj 532 352 tgl 15 0 empty empty empty 17 7 0 10 -262144 -1 -1 0
1;
#X obj 528 212 print;
#X obj 759 136 ctlin 1;
#X obj 761 173 vsl 15 128 0 127 0 0 empty empty empty 0 -9 0 10 -262144
-1 -1 0 1;
#X obj 830 139 hid;
#X obj 720 383 mrpeach/routeOSC;
#X connect 0 0 2 0;
#X connect 0 1 2 1;
#X connect 2 0 1 0;
#X connect 2 0 9 0;
#X connect 3 0 0 0;
#X connect 4 0 7 0;
#X connect 5 0 4 0;
#X connect 6 0 7 0;
#X connect 7 0 8 0;
#X connect 10 0 11 0;
